# xmcd
#
# Track frame offsets:
#	150
#	15774
#	30819
#	45116
#	58159
#	76799
#	92887
#	107321
#	120634
#	136342
#	154435
#	169253
#
# Disc length: 2479 seconds
#
# Revision: 1
# Processed by: cddbd v1.5.2PL0 Copyright (c) Steve Scherf et al.
# Submitted via: audiograbber 1.83.01
#
DISCID=7f09ad0c
DTITLE=Markus Wohlfahrt - Mein Weg mit Dir
DYEAR=2011
DGENRE=Schlager
TTITLE0=Mein Weg mit Dir
TTITLE1=Es ist Sommerzeit
TTITLE2=Ich werd da sein
TTITLE3=Ich lieb das Leben
TTITLE4=Du bist mein Anker
TTITLE5=Unsichtbare Helden
TTITLE6=Du hast Dein Lachen verlorn
TTITLE7=Wer wenn nicht wir
TTITLE8=Wahre Träumer
TTITLE9=Irgendetwas bleibt
TTITLE10=Tu es für Dich
TTITLE11=Ich hab nur diese eine Leben
EXTD=
EXTT0=
EXTT1=
EXTT2=
EXTT3=
EXTT4=
EXTT5=
EXTT6=
EXTT7=
EXTT8=
EXTT9=
EXTT10=
EXTT11=
PLAYORDER=
